<svg xmlns="http://www.w3.org/2000/svg" xmlns:xlink="http://www.w3.org/1999/xlink" aria-hidden="true" role="img" class="iconify iconify--logos" width="31.88" height="32" preserveAspectRatio="xMidYMid meet" viewBox="0 0 256 257"><defs><linearGradient id="IconifyId1813088fe1fbc03fb466" x1="-.828%" x2="57.636%" y1="7.652%" y2="78.411%"><stop offset="0%" stop-color="#41D1FF"></stop><stop offset="100%" stop-color="#BD34FE"></stop></linearGradient><linearGradient id="IconifyId1813088fe1fbc03fb467" x1="43.376%" x2="50.316%" y1="2.242%" y2="89.03%"><stop offset="0%" stop-color="#FFEA83"></stop><stop offset="8.333%" stop-color="#FFDD35"></stop><stop offset="100%" stop-color="#FFA800"></stop></linearGradient></defs><path fill="url(#IconifyId1813088fe1fbc03fb466)" d="M255.153 37.938L134.897 252.976c-2.483 4.44-8.862 4.466-11.382.048L.875 37.958c-2.746-4.814 1.371-10.646 6.827-9.67l120.385 22.656c1.037.194 2.101.194 3.138 0L248.2 28.28c5.49-.996 9.575 4.91 6.952 9.657z"></path><path fill="url(#IconifyId1813088fe1fbc03fb467)" d="M185.432.063L96.44 17.501a3.268 3.268 0 00-2.634 3.014l-5.474 92.456a3.268 3.268 0 003.997 3.378l24.777-5.718c2.318-.535 4.413 1.507 3.936 3.838l-7.361 36.047c-.495 2.426 1.782 4.5 4.151 3.78l15.906-4.624c2.318-.675 4.634 1.168 4.634 3.555v.089c0 2.387-2.318 4.23-4.634 3.555l-15.908-4.624c-2.37-.72-4.646 1.354-4.151 3.78l7.362 36.047c.477 2.331-1.618 4.373-3.936 3.838l-24.777-5.718c-2.434-.56-4.622 1.608-3.997 3.978l11.774 53.984c.666 3.058 4.325 4.179 6.51 2.058l92.3-88.81c1.84-1.77 1.224-4.787-1.243-5.79L163.43 83.916c-2.317-.873-2.699-4.008-.717-5.42l53.372-37.98c1.976-1.407 1.073-4.52-1.53-4.52h-.089z"></path></svg>
